<svg width="25" height="25" viewBox="0 0 25 25" fill="none" xmlns="http://www.w3.org/2000/svg">
<path d="M12.5225 0.0937195C5.63264 0.0937195 0.0456543 5.77492 0.0456543 12.7836C0.0456543 18.3904 3.62065 23.1472 8.57809 24.8252C9.20164 24.9426 9.43057 24.5499 9.43057 24.2147C9.43057 23.9121 9.419 22.9125 9.41363 21.8521C5.94256 22.6197 5.21012 20.3548 5.21012 20.3548C4.64256 18.888 3.82479 18.498 3.82479 18.498C2.69276 17.7104 3.91012 17.7266 3.91012 17.7266C5.16301 17.8159 5.82272 19.0343 5.82272 19.0343C6.93553 20.9743 8.74152 20.4134 9.4535 20.0892C9.56549 19.2692 9.88884 18.709 10.2457 18.3923C7.47437 18.0714 4.56115 16.9833 4.56115 12.1208C4.56115 10.7353 5.04855 9.60329 5.84669 8.7146C5.71714 8.39476 5.29008 7.10428 5.96756 5.35632C5.96756 5.35632 7.01528 5.01525 9.39958 6.6571C10.3948 6.37593 11.4622 6.23492 12.5225 6.23009C13.5828 6.23492 14.651 6.37593 15.6481 6.6571C18.0295 5.01525 19.0758 5.35632 19.0758 5.35632C19.755 7.10428 19.3277 8.39476 19.1981 8.7146C19.9981 9.60329 20.4822 10.7353 20.4822 12.1208C20.4822 16.9948 17.5634 18.068 14.7851 18.3822C15.2326 18.776 15.6314 19.5483 15.6314 20.7322C15.6314 22.43 15.6169 23.7965 15.6169 24.2147C15.6169 24.5524 15.8415 24.9481 16.474 24.8235C21.4287 23.1436 24.9992 18.3885 24.9992 12.7836C24.9992 5.77492 19.413 0.0937195 12.5225 0.0937195Z" fill="#4D4D59"/>
<path d="M4.77128 18.3137C4.7438 18.3769 4.64628 18.3956 4.55744 18.3523C4.46694 18.311 4.41612 18.225 4.44545 18.1618C4.47231 18.0968 4.57004 18.079 4.66033 18.122C4.75103 18.1636 4.80269 18.2504 4.77128 18.3137Z" fill="#4D4D59"/>
<path d="M5.27664 18.887C5.21714 18.9431 5.10082 18.917 5.02189 18.8283C4.94028 18.7399 4.92499 18.6216 4.98532 18.5646C5.04668 18.5085 5.15949 18.5348 5.24131 18.6232C5.32292 18.7128 5.33883 18.8302 5.27664 18.887Z" fill="#4D4D59"/>
<path d="M5.76859 19.6179C5.69214 19.6719 5.56714 19.6212 5.48987 19.5084C5.41342 19.3955 5.41342 19.2602 5.49152 19.206C5.569 19.1518 5.69214 19.2005 5.77045 19.3125C5.84669 19.427 5.84669 19.5626 5.76859 19.6179Z" fill="#4D4D59"/>
<path d="M6.44254 20.3239C6.37415 20.4006 6.22849 20.38 6.12188 20.2754C6.01279 20.173 5.98242 20.0278 6.05101 19.9511C6.12023 19.8742 6.26672 19.8959 6.37415 19.9997C6.48242 20.1018 6.51548 20.2481 6.44254 20.3239Z" fill="#4D4D59"/>
<path d="M7.37231 20.7339C7.34214 20.8333 7.20185 20.8785 7.06053 20.8362C6.91942 20.7927 6.82706 20.6763 6.85557 20.5759C6.88491 20.4758 7.02582 20.4288 7.16818 20.4739C7.30908 20.5172 7.40165 20.6328 7.37231 20.7339Z" fill="#4D4D59"/>
<path d="M8.3934 20.81C8.39691 20.9146 8.27707 21.0014 8.12873 21.0031C7.97955 21.0067 7.85889 20.922 7.85724 20.819C7.85724 20.7133 7.97439 20.6274 8.12356 20.6248C8.27191 20.6219 8.3934 20.7059 8.3934 20.81Z" fill="#4D4D59"/>
<path d="M9.34358 20.6454C9.36135 20.7476 9.25825 20.8524 9.11093 20.8802C8.9661 20.9073 8.83201 20.8442 8.81362 20.7429C8.79564 20.6383 8.9006 20.5334 9.04523 20.5063C9.19275 20.4803 9.32478 20.5416 9.34358 20.6454Z" fill="#4D4D59"/>
</svg>
