<svg width="25" height="25" viewBox="0 0 25 25" fill="none" xmlns="http://www.w3.org/2000/svg">
<path fill-rule="evenodd" clip-rule="evenodd" d="M0 12.5C0 19.4036 5.59644 25 12.5 25C19.4036 25 25 19.4036 25 12.5C25 5.59644 19.4036 0 12.5 0C5.59644 0 0 5.59644 0 12.5ZM20.3449 12.0216C20.3432 16.1189 17.0101 19.4528 12.912 19.4544H12.9089C11.665 19.454 10.4426 19.1419 9.35695 18.5497L5.41667 19.5833L6.47115 15.7317C5.82069 14.6044 5.47843 13.3258 5.47898 12.0158C5.48061 7.91755 8.81501 4.58333 12.9119 4.58333C14.9003 4.58419 16.7666 5.35826 18.1699 6.76323C19.5732 8.16813 20.3457 10.0356 20.3449 12.0216Z" fill="#4D4D59"/>
<path fill-rule="evenodd" clip-rule="evenodd" d="M7.20129 17.8175L9.53952 17.2041L9.76511 17.338C10.7136 17.9009 11.8009 18.1987 12.9095 18.1991H12.912C16.3171 18.1991 19.0885 15.4277 19.0899 12.0212C19.0905 10.3704 18.4485 8.81828 17.2821 7.65052C16.1157 6.48276 14.5646 5.83935 12.9145 5.83878C9.50673 5.83878 6.7353 8.60996 6.73395 12.0162C6.73347 13.1835 7.06009 14.3204 7.67851 15.304L7.8254 15.5377L7.20129 17.8175ZM16.4023 13.6219C16.5318 13.6845 16.6193 13.7268 16.6567 13.7891C16.7031 13.8666 16.7031 14.2384 16.5484 14.6723C16.3936 15.1061 15.6516 15.5021 15.2947 15.5554C14.9748 15.6032 14.5699 15.6232 14.125 15.4818C13.8552 15.3962 13.5093 15.2819 13.0662 15.0906C11.3251 14.3388 10.1485 12.6513 9.92607 12.3323C9.91049 12.31 9.8996 12.2943 9.89352 12.2862L9.89202 12.2842C9.79373 12.1531 9.13516 11.2744 9.13516 10.365C9.13516 9.50951 9.55539 9.0611 9.74883 8.8547C9.76208 8.84056 9.77427 8.82756 9.78518 8.81563C9.95541 8.6297 10.1566 8.58321 10.2804 8.58321C10.4042 8.58321 10.5282 8.58436 10.6364 8.58979C10.6497 8.59046 10.6636 8.59038 10.678 8.5903C10.7862 8.58966 10.9212 8.58887 11.0543 8.9086C11.1055 9.03165 11.1804 9.21407 11.2594 9.40646C11.4192 9.79553 11.5958 10.2254 11.6269 10.2876C11.6733 10.3806 11.7043 10.489 11.6424 10.613C11.6331 10.6316 11.6245 10.6491 11.6163 10.6659C11.5698 10.7608 11.5356 10.8307 11.4566 10.9228C11.4256 10.959 11.3935 10.9981 11.3615 11.0372C11.2976 11.115 11.2337 11.1928 11.1781 11.2482C11.0851 11.3408 10.9883 11.4413 11.0966 11.6272C11.205 11.8132 11.5777 12.4213 12.1298 12.9138C12.7233 13.4432 13.2392 13.6669 13.5006 13.7803C13.5517 13.8025 13.593 13.8204 13.6234 13.8356C13.809 13.9286 13.9174 13.913 14.0257 13.7891C14.1341 13.6652 14.49 13.2468 14.6138 13.0609C14.7376 12.875 14.8614 12.906 15.0316 12.968C15.2019 13.03 16.115 13.4792 16.3007 13.5722C16.337 13.5903 16.3709 13.6067 16.4023 13.6219Z" fill="#4D4D59"/>
</svg>
