<svg width="257" height="256" viewBox="0 0 257 256" fill="none" xmlns="http://www.w3.org/2000/svg">
<g clip-path="url(#clip0_10_410)">
<path d="M169.519 67.8239H127.337C126.413 67.8267 125.501 67.6187 124.67 67.2155C123.839 66.8124 123.111 66.2249 122.541 65.4977C121.961 64.7636 121.555 63.9066 121.356 62.9921C121.156 62.0775 121.168 61.1294 121.39 60.22C125.277 43.9212 125.277 26.9352 121.389 10.6365C121.168 9.72709 121.156 8.77908 121.356 7.86457C121.555 6.95007 121.961 6.09317 122.541 5.35907C123.111 4.63179 123.839 4.04424 124.67 3.64113C125.501 3.23802 126.413 3.02996 127.337 3.0328H169.519C170.975 3.03699 172.383 3.55849 173.491 4.5044C174.599 5.45031 175.336 6.75922 175.57 8.19801C178.346 26.2452 178.346 44.6115 175.57 62.6587C175.336 64.0975 174.599 65.4064 173.491 66.3523C172.383 67.2982 170.975 67.8197 169.519 67.8239Z" fill="#E6E6E6"/>
<path d="M127.336 6.20964C126.893 6.20815 126.455 6.30792 126.056 6.50137C125.657 6.69482 125.307 6.97684 125.033 7.32598C124.751 7.68371 124.554 8.1011 124.458 8.54641C124.361 8.99172 124.367 9.45321 124.476 9.89578C128.48 26.6816 128.48 44.1751 124.476 60.9609C124.367 61.4034 124.361 61.8648 124.458 62.31C124.554 62.7553 124.751 63.1726 125.033 63.5302L125.033 63.5305C125.307 63.8797 125.657 64.1618 126.056 64.3553C126.455 64.5488 126.893 64.6486 127.336 64.6471H169.519C170.218 64.6473 170.895 64.3991 171.429 63.9466C171.962 63.494 172.318 62.8666 172.433 62.176C175.16 44.4487 175.16 26.408 172.433 8.68068C172.318 7.9901 171.962 7.36269 171.429 6.91017C170.895 6.45764 170.218 6.2094 169.519 6.20963L127.336 6.20964Z" fill="white"/>
<path d="M160.314 21.4853H138.178C137.337 21.4844 136.53 21.1494 135.935 20.5539C135.34 19.9583 135.005 19.1508 135.004 18.3086V17.0672C135.005 16.225 135.34 15.4175 135.935 14.8219C136.53 14.2264 137.337 13.8914 138.178 13.8905H160.314C161.155 13.8914 161.962 14.2264 162.557 14.8219C163.152 15.4175 163.487 16.225 163.487 17.0672V18.3086C163.487 19.1509 163.152 19.9583 162.557 20.5539C161.962 21.1494 161.155 21.4844 160.314 21.4853Z" fill="#E6E6E6"/>
<path d="M160.314 37.1714H138.178C137.337 37.1704 136.53 36.8354 135.935 36.2399C135.34 35.6443 135.005 34.8369 135.004 33.9946V32.7532C135.005 31.911 135.34 31.1035 135.935 30.508C136.53 29.9124 137.337 29.5774 138.178 29.5765H160.314C161.155 29.5774 161.962 29.9124 162.557 30.508C163.152 31.1035 163.487 31.911 163.487 32.7532V33.9946C163.487 34.8369 163.152 35.6443 162.557 36.2399C161.962 36.8354 161.155 37.1704 160.314 37.1714Z" fill="#E6E6E6"/>
<path d="M160.314 52.8574H138.178C137.337 52.8565 136.53 52.5215 135.935 51.9259C135.34 51.3304 135.005 50.5229 135.004 49.6807V48.4393C135.005 47.597 135.34 46.7896 135.935 46.194C136.53 45.5985 137.337 45.2635 138.178 45.2626H160.314C161.155 45.2635 161.962 45.5985 162.557 46.194C163.152 46.7896 163.487 47.597 163.487 48.4393V49.6807C163.487 50.5229 163.152 51.3304 162.557 51.9259C161.962 52.5215 161.155 52.8565 160.314 52.8574Z" fill="#E6E6E6"/>
<path d="M248.867 108.064H206.685C205.761 108.067 204.849 107.859 204.018 107.455C203.187 107.052 202.459 106.465 201.889 105.738C201.309 105.003 200.903 104.147 200.704 103.232C200.504 102.317 200.516 101.369 200.738 100.46C204.625 84.1611 204.625 67.1752 200.737 50.8764C200.516 49.967 200.504 49.019 200.704 48.1045C200.903 47.19 201.309 46.3331 201.889 45.599C202.459 44.8717 203.187 44.2842 204.018 43.8811C204.849 43.4779 205.761 43.2699 206.685 43.2727H248.867C250.323 43.2769 251.731 43.7984 252.839 44.7443C253.947 45.6902 254.684 46.9992 254.918 48.4379C257.694 66.4852 257.694 84.8514 254.918 102.899C254.684 104.337 253.947 105.646 252.839 106.592C251.731 107.538 250.323 108.06 248.867 108.064Z" fill="#E6E6E6"/>
<path d="M206.685 46.4496C206.241 46.4481 205.803 46.5478 205.404 46.7413C205.005 46.9347 204.655 47.2168 204.381 47.5659C204.099 47.9236 203.902 48.341 203.806 48.7863C203.709 49.2316 203.715 49.6931 203.824 50.1357C207.828 66.9215 207.828 84.415 203.824 101.201C203.715 101.643 203.709 102.105 203.806 102.55C203.902 102.995 204.099 103.413 204.381 103.77L204.381 103.77C204.655 104.12 205.005 104.402 205.404 104.595C205.803 104.789 206.241 104.889 206.685 104.887H248.867C249.566 104.887 250.243 104.639 250.777 104.186C251.31 103.734 251.666 103.107 251.781 102.416C254.508 84.6886 254.508 66.648 251.781 48.9206C251.666 48.23 251.31 47.6026 250.777 47.1501C250.243 46.6976 249.566 46.4493 248.867 46.4496L206.685 46.4496Z" fill="white"/>
<path d="M164.758 153.863H122.576C121.612 153.866 120.661 153.649 119.794 153.228C118.927 152.808 118.167 152.195 117.572 151.436C116.967 150.671 116.544 149.777 116.336 148.823C116.128 147.87 116.14 146.881 116.371 145.933C120.249 129.675 120.249 112.731 116.371 96.4729C116.14 95.5246 116.128 94.536 116.336 93.5824C116.544 92.6288 116.967 91.7352 117.572 90.9698C118.167 90.211 118.927 89.598 119.794 89.1774C120.661 88.7569 121.612 88.5397 122.576 88.5427H164.758C166.277 88.5472 167.746 89.0914 168.902 90.0785C170.058 91.0655 170.826 92.4311 171.07 93.9323C173.85 112.006 173.85 130.4 171.07 148.474C170.826 149.975 170.058 151.34 168.902 152.327C167.746 153.314 166.277 153.859 164.758 153.863Z" fill="#F2F2F2"/>
<path d="M239.662 69.6673H217.526C216.685 69.6664 215.878 69.3314 215.283 68.7359C214.688 68.1403 214.353 67.3328 214.353 66.4906V65.2492C214.353 64.407 214.688 63.5995 215.283 63.0039C215.878 62.4084 216.685 62.0734 217.526 62.0725H239.662C240.503 62.0734 241.31 62.4084 241.905 63.0039C242.5 63.5995 242.835 64.407 242.836 65.2492V66.4906C242.835 67.3329 242.5 68.1403 241.905 68.7359C241.31 69.3314 240.503 69.6664 239.662 69.6673Z" fill="#E6E6E6"/>
<path d="M239.662 85.3534H217.526C216.685 85.3524 215.878 85.0175 215.283 84.4219C214.688 83.8264 214.353 83.0189 214.353 82.1767V80.9352C214.353 80.093 214.688 79.2855 215.283 78.69C215.878 78.0944 216.685 77.7594 217.526 77.7585H239.662C240.503 77.7594 241.31 78.0944 241.905 78.69C242.5 79.2855 242.835 80.093 242.836 80.9352V82.1767C242.835 83.0189 242.5 83.8264 241.905 84.4219C241.31 85.0175 240.503 85.3524 239.662 85.3534Z" fill="#E6E6E6"/>
<path d="M143.785 133.162C150.504 133.162 155.951 127.71 155.951 120.984C155.951 114.259 150.504 108.807 143.785 108.807C137.065 108.807 131.618 114.259 131.618 120.984C131.618 127.71 137.065 133.162 143.785 133.162Z" fill="white"/>
<path d="M149.604 119.396H145.372V115.16C145.372 114.739 145.205 114.335 144.907 114.037C144.609 113.739 144.206 113.572 143.785 113.572C143.364 113.572 142.96 113.739 142.663 114.037C142.365 114.335 142.198 114.739 142.198 115.16V119.396H137.966C137.545 119.396 137.141 119.563 136.844 119.861C136.546 120.159 136.379 120.563 136.379 120.984C136.379 121.406 136.546 121.81 136.844 122.108C137.141 122.406 137.545 122.573 137.966 122.573H142.198V126.809C142.198 127.23 142.365 127.634 142.663 127.932C142.96 128.23 143.364 128.397 143.785 128.397C144.206 128.397 144.609 128.23 144.907 127.932C145.205 127.634 145.372 127.23 145.372 126.809V122.573H149.604C150.024 122.573 150.428 122.406 150.726 122.108C151.023 121.81 151.191 121.406 151.191 120.984C151.191 120.563 151.023 120.159 150.726 119.861C150.428 119.563 150.024 119.396 149.604 119.396Z" fill="#E6E6E6"/>
<path d="M159.125 9.00103H136.908C136.277 9.00032 135.672 8.74907 135.225 8.30239C134.779 7.85572 134.528 7.2501 134.527 6.61841V2.38263C134.528 1.75093 134.779 1.14532 135.225 0.698641C135.672 0.251966 136.277 0.000711907 136.908 0H159.125C159.756 0.000711907 160.361 0.251966 160.808 0.698641C161.254 1.14532 161.505 1.75093 161.506 2.38263V6.61841C161.505 7.2501 161.254 7.85572 160.808 8.30239C160.361 8.74907 159.756 9.00032 159.125 9.00103Z" fill="#CCCCCC"/>
<path d="M239.532 49.7704H217.314C216.683 49.7697 216.078 49.5185 215.632 49.0718C215.185 48.6251 214.934 48.0195 214.934 47.3878V43.152C214.934 42.5203 215.185 41.9147 215.632 41.468C216.078 41.0214 216.683 40.7701 217.314 40.7694H239.532C240.163 40.7701 240.768 41.0214 241.214 41.468C241.66 41.9147 241.911 42.5203 241.912 43.152V47.3878C241.911 48.0195 241.66 48.6251 241.214 49.0718C240.768 49.5185 240.163 49.7697 239.532 49.7704Z" fill="#CCCCCC"/>
<path d="M46.8663 249.414H53.3517L55.3793 224.376H46.8652L46.8663 249.414Z" fill="#FFB8B8"/>
<path d="M45.2122 247.295L57.9839 247.294H57.9845C59.0533 247.294 60.1117 247.505 61.0992 247.914C62.0867 248.324 62.984 248.924 63.7398 249.68C64.4956 250.437 65.0951 251.335 65.5042 252.323C65.9132 253.312 66.1237 254.371 66.1237 255.441V255.705L45.2126 255.706L45.2122 247.295Z" fill="#2F2E41"/>
<path d="M11.953 249.414H18.4383L21.5239 224.376H11.9519L11.953 249.414Z" fill="#FFB8B8"/>
<path d="M10.2991 247.295L23.0708 247.294H23.0714C24.1402 247.294 25.1986 247.505 26.1861 247.914C27.1736 248.324 28.0709 248.924 28.8267 249.68C29.5825 250.437 30.182 251.335 30.5911 252.323C31.0001 253.312 31.2106 254.371 31.2106 255.441V255.705L10.2995 255.706L10.2991 247.295Z" fill="#2F2E41"/>
<path d="M13.1037 241.504C12.4421 241.504 11.8048 241.255 11.3183 240.806C11.0572 240.568 10.8469 240.279 10.7 239.957C10.5531 239.635 10.4727 239.287 10.4636 238.934L7.86279 145.633L44.792 154.874L56.1862 189.087C57.6555 193.488 58.2915 198.126 58.0617 202.76L56.6468 235.925C56.6146 236.604 56.3221 237.245 55.8301 237.714C55.3381 238.183 54.6844 238.445 54.0049 238.444H47.811C47.1717 238.442 46.5547 238.209 46.0733 237.788C45.5919 237.366 45.2782 236.786 45.1899 236.152L40.7629 199.543C40.376 196.688 39.3779 193.949 37.8367 191.514L29.1245 177.708C29.0663 177.616 28.981 177.544 28.8803 177.502C28.7796 177.46 28.6685 177.45 28.5621 177.474C28.4557 177.498 28.3593 177.554 28.2859 177.635C28.2126 177.715 28.166 177.817 28.1524 177.925L21.3155 238.861C21.2421 239.479 20.9532 240.052 20.4997 240.477C20.0461 240.903 19.457 241.155 18.8361 241.189L13.2542 241.5C13.204 241.503 13.1539 241.504 13.1037 241.504Z" fill="#2F2E41"/>
<path d="M38.6465 85.2277C45.8221 85.2277 51.639 79.4054 51.639 72.2233C51.639 65.0412 45.8221 59.2189 38.6465 59.2189C31.471 59.2189 25.6541 65.0412 25.6541 72.2233C25.6541 79.4054 31.471 85.2277 38.6465 85.2277Z" fill="#FFB8B8"/>
<path d="M44.6151 158.668C44.3915 158.668 44.1689 158.64 43.9523 158.584H43.9519L7.31195 149.181C6.65686 149.013 6.09095 148.6 5.73056 148.027C5.37016 147.455 5.24268 146.765 5.37433 146.102L13.789 100.731C14.3133 98.108 15.4656 95.6519 17.1471 93.5732C18.8286 91.4945 20.9891 89.8554 23.4429 88.7965C25.8339 87.7374 28.4486 87.2836 31.0562 87.4752C33.6639 87.6668 36.1843 88.498 38.3951 89.8953C38.908 90.2156 39.4248 90.5649 39.9305 90.9336C41.9665 92.4368 43.6269 94.3918 44.7814 96.6452C45.9358 98.8985 46.553 101.389 46.5846 103.921L47.2537 155.983C47.2582 156.334 47.1933 156.681 47.0628 157.006C46.9324 157.331 46.7389 157.627 46.4935 157.876C46.2482 158.126 45.9559 158.325 45.6335 158.46C45.3111 158.596 44.9649 158.667 44.6151 158.668Z" fill="#7370DA"/>
<path d="M11.082 159.202C10.645 158.558 10.3542 157.826 10.2303 157.058C10.1064 156.289 10.1523 155.503 10.3649 154.754C10.5774 154.006 10.9514 153.313 11.4604 152.724C11.9695 152.136 12.6012 151.666 13.3112 151.349L11.6815 132.498L20.3178 137.183L20.5413 154.366C20.9953 155.595 20.9831 156.948 20.507 158.169C20.0308 159.389 19.1238 160.393 17.9578 160.989C16.7919 161.585 15.4479 161.733 14.1807 161.403C12.9134 161.074 11.8109 160.291 11.0821 159.202H11.082Z" fill="#FFB8B8"/>
<path d="M14.1673 148.855C13.9236 148.855 13.6809 148.824 13.4448 148.764C12.9371 148.634 12.4737 148.37 12.1039 147.998C11.734 147.627 11.4714 147.162 11.3437 146.653L7.09956 129.772C5.61634 123.876 6.3234 117.641 9.0892 112.228L17.9809 94.8177C18.5429 92.7333 19.901 90.9534 21.7622 89.862C23.6235 88.7707 25.8387 88.4552 27.9301 88.9837C28.9726 89.2472 29.9524 89.7152 30.8127 90.3605C31.6731 91.0059 32.3969 91.8158 32.9422 92.7433C33.4987 93.684 33.8627 94.7262 34.0129 95.8091C34.1631 96.892 34.0966 97.994 33.8172 99.0509L21.1598 127.381L21.3102 144.343C21.3141 144.941 21.1343 145.526 20.7952 146.019C20.4561 146.512 19.974 146.889 19.414 147.099L15.1782 148.673C14.8548 148.794 14.5124 148.855 14.1673 148.855Z" fill="#7370DA"/>
<path d="M74.7554 152.268C73.9828 152.18 73.2389 151.923 72.5762 151.516C71.9135 151.108 71.348 150.561 70.9197 149.911C70.4913 149.261 70.2105 148.526 70.097 147.756C69.9835 146.986 70.0401 146.2 70.2627 145.454L54.9255 134.394L64.1069 130.898L77.2638 141.937C78.4907 142.395 79.5074 143.287 80.1212 144.444C80.735 145.602 80.9032 146.944 80.594 148.218C80.2848 149.491 79.5197 150.607 78.4436 151.353C77.3675 152.1 76.0552 152.425 74.7554 152.268H74.7554Z" fill="#FFB8B8"/>
<path d="M66.7263 144.192C66.2741 144.191 65.8282 144.086 65.4236 143.884L49.8718 136.091C44.4398 133.37 40.1801 128.767 37.8846 123.138L30.5014 105.035C29.2898 103.248 28.828 101.057 29.2157 98.933C29.6034 96.809 30.8094 94.9226 32.5738 93.6805C33.4554 93.06 34.4515 92.6214 35.5042 92.3902C36.5568 92.159 37.6449 92.1398 38.705 92.3338C39.7775 92.5268 40.8012 92.931 41.7165 93.5228C42.6319 94.1147 43.4208 94.8825 44.0376 95.7818L57.2332 123.865L70.1753 134.816C70.6311 135.203 70.957 135.721 71.109 136.3C71.261 136.879 71.2318 137.49 71.0252 138.052L69.4543 142.292C69.2492 142.848 68.8787 143.328 68.3927 143.666C67.9041 144.008 67.3224 144.192 66.7263 144.192Z" fill="#7370DA"/>
<path d="M35.9184 85.4268C36.6088 85.7291 38.0224 80.2235 37.3892 79.1223C36.4474 77.4847 36.5031 77.4964 35.878 76.413C35.2528 75.3295 35.1129 73.8466 35.9225 72.8932C36.732 71.9399 38.6055 72.0664 38.975 73.2616C38.7373 70.9914 40.9808 69.1664 43.2032 68.6536C45.4255 68.1407 47.7696 68.4592 50.0042 68.0028C52.5975 67.4731 55.2957 65.2973 54.261 62.4429C54.0835 61.9677 53.8176 61.5304 53.4776 61.1542C52.2821 59.8088 50.6098 59.2343 48.9748 58.6789C45.5734 57.5233 42.079 56.3533 38.4892 56.4808C35.5314 56.6356 32.6829 57.6501 30.2921 59.4C27.9014 61.15 26.0722 63.5596 25.0284 66.3339C24.781 67.028 24.5893 67.7407 24.4553 68.4652C23.2231 75.0965 27.0704 81.6374 33.3191 84.1626L35.9184 85.4268Z" fill="#2F2E41"/>
<path opacity="0.2" d="M20.5776 144.728L20.8723 127.293L30.0994 108.723L22.6936 127.785L20.5776 144.728Z" fill="black"/>
<path d="M104.251 188.483L65.2977 172.283C64.4439 171.931 63.6815 171.389 63.0686 170.698C62.4557 170.006 62.0084 169.184 61.7609 168.294C61.5063 167.393 61.4605 166.446 61.6268 165.525C61.7932 164.603 62.1673 163.732 62.7207 162.978C72.5587 149.419 79.0699 133.733 81.7275 117.189C81.8714 116.264 82.2241 115.384 82.759 114.616C83.2938 113.848 83.9966 113.213 84.8138 112.758C85.6189 112.305 86.5167 112.042 87.4387 111.989C88.3606 111.936 89.2825 112.094 90.1343 112.451L129.088 128.651C130.431 129.214 131.531 130.236 132.192 131.535C132.853 132.834 133.031 134.326 132.696 135.744C128.342 153.476 121.301 170.437 111.819 186.037C111.052 187.276 109.87 188.201 108.484 188.649C107.098 189.097 105.598 189.038 104.251 188.483Z" fill="#E6E6E6"/>
<path d="M88.9164 115.385C88.5074 115.213 88.0647 115.137 87.6219 115.162C87.1792 115.188 86.748 115.314 86.3612 115.531C85.9637 115.753 85.622 116.063 85.3621 116.437C85.1022 116.811 84.931 117.24 84.8614 117.69C82.1245 134.729 75.4187 150.884 65.2867 164.847C65.0169 165.214 64.8343 165.638 64.7527 166.086C64.6712 166.534 64.6929 166.995 64.8162 167.434L64.8163 167.434C64.9353 167.862 65.1502 168.257 65.4446 168.588C65.739 168.92 66.1053 169.181 66.5154 169.35L105.469 185.549C106.115 185.818 106.835 185.849 107.501 185.636C108.168 185.423 108.737 184.98 109.107 184.386C118.421 169.063 125.337 152.403 129.614 134.985C129.773 134.304 129.685 133.588 129.365 132.965C129.046 132.342 128.516 131.853 127.87 131.584L88.9164 115.385Z" fill="white"/>
<path d="M109.658 151.446L89.2162 142.945C88.4395 142.621 87.8229 142.002 87.5018 141.223C87.1806 140.445 87.1811 139.571 87.5031 138.793L87.9789 137.646C88.3026 136.869 88.9212 136.252 89.699 135.93C90.4768 135.609 91.3502 135.609 92.1276 135.931L112.569 144.432C113.346 144.756 113.962 145.375 114.283 146.154C114.605 146.932 114.604 147.807 114.282 148.585L113.806 149.731C113.482 150.509 112.864 151.126 112.086 151.447C111.308 151.769 110.435 151.768 109.658 151.446Z" fill="#7370DA"/>
<path d="M103.645 165.931L83.2033 157.43C82.4266 157.106 81.81 156.487 81.4888 155.709C81.1677 154.93 81.1681 154.056 81.4901 153.278L81.966 152.132C82.2897 151.354 82.9083 150.737 83.6861 150.416C84.4638 150.094 85.3372 150.095 86.1146 150.417L106.556 158.918C107.333 159.242 107.949 159.861 108.27 160.639C108.592 161.418 108.591 162.292 108.269 163.07L107.793 164.217C107.47 164.994 106.851 165.611 106.073 165.933C105.295 166.254 104.422 166.254 103.645 165.931Z" fill="#7370DA"/>
<path d="M117.848 131.088C117.542 131.088 117.239 131.028 116.956 130.913L96.3582 122.578C95.7734 122.34 95.3066 121.88 95.0601 121.299C94.8136 120.717 94.8077 120.062 95.0435 119.476L96.6298 115.549C96.8665 114.963 97.326 114.495 97.9072 114.248C98.4884 114.002 99.1437 113.996 99.729 114.233L120.327 122.568C120.912 122.806 121.378 123.266 121.625 123.847C121.871 124.429 121.877 125.084 121.641 125.67L120.055 129.597C119.877 130.037 119.572 130.414 119.179 130.679C118.786 130.945 118.323 131.087 117.848 131.088Z" fill="#CCCCCC"/>
<path d="M74.5872 256H0.528988C0.388691 256 0.254149 255.944 0.154945 255.845C0.0557401 255.746 0 255.611 0 255.471C0 255.33 0.0557401 255.195 0.154945 255.096C0.254149 254.997 0.388691 254.941 0.528988 254.941H74.5872C74.7275 254.941 74.8621 254.997 74.9613 255.096C75.0605 255.195 75.1162 255.33 75.1162 255.471C75.1162 255.611 75.0605 255.746 74.9613 255.845C74.8621 255.944 74.7275 256 74.5872 256Z" fill="#CCCCCC"/>
</g>
<defs>
<clipPath id="clip0_10_410">
<rect width="257" height="256" fill="white"/>
</clipPath>
</defs>
</svg>
